<?xml version="1.0" standalone="no"?>
<!DOCTYPE svg PUBLIC "-//W3C//DTD SVG 20010904//EN"
 "http://www.w3.org/TR/2001/REC-SVG-20010904/DTD/svg10.dtd">
<svg version="1.0" xmlns="http://www.w3.org/2000/svg"
 width="512.000000pt" height="512.000000pt" viewBox="0 0 512.000000 512.000000"
 preserveAspectRatio="xMidYMid meet">

<g transform="translate(0.000000,512.000000) scale(0.100000,-0.100000)"
fill="#ffffff" stroke="none">
<path d="M4097 4476 c-59 -16 -121 -73 -142 -130 -8 -23 -26 -106 -41 -186
-14 -80 -28 -147 -30 -149 -4 -4 -6 -3 -116 81 -215 163 -504 292 -773 347
-1093 221 -2128 -476 -2327 -1569 -30 -163 -30 -457 0 -620 158 -865 853
-1511 1721 -1599 857 -88 1643 349 2001 1112 56 119 100 244 100 283 0 78 -54
163 -124 195 -55 25 -145 25 -195 -1 -57 -29 -84 -67 -130 -187 -141 -364
-402 -652 -746 -823 -230 -114 -376 -149 -650 -157 -164 -5 -207 -2 -313 16
-215 36 -425 121 -604 242 -121 82 -314 275 -395 394 -350 518 -350 1144 0
1670 77 116 271 309 392 391 185 126 389 208 606 245 107 18 150 21 309 16
271 -8 446 -52 670 -168 111 -58 276 -166 267 -175 -2 -3 -113 14 -245 36
-265 44 -290 44 -361 -3 -50 -33 -91 -114 -91 -176 1 -89 66 -178 147 -201 90
-25 960 -161 996 -155 81 12 145 64 175 140 6 17 48 224 92 460 57 301 80 446
77 482 -10 135 -138 224 -270 189z"/>
</g>
</svg>
